<?xml version="1.0" encoding="UTF-8"?>
<svg id="Layer_1" xmlns="http://www.w3.org/2000/svg" version="1.1" viewBox="0 0 595.28 363.65">
  <!-- Generator: Adobe Illustrator 29.7.1, SVG Export Plug-In . SVG Version: 2.1.1 Build 8)  -->
  <defs>
    <style>
      .st0 {
        stroke-width: .32px;
      }

      .st0, .st1, .st2 {
        fill: #fff;
        stroke: #d71920;
        stroke-miterlimit: 10;
      }

      .st1 {
        stroke-width: .41px;
      }

      .st3 {
        fill: #d71920;
      }

      .st2 {
        stroke-width: .54px;
      }
    </style>
  </defs>
  <g>
    <path class="st3" d="M225.63,73.53h322.51c7.8-.55,12.81,5.43,12.81,5.43l3.09,1.15,8.49-8.49-8.49-8.49-3.11-1.93s-7.07,8.51-12.79,8.51l-325.86,2.53,3.34,1.27Z"/>
    <path class="st2" d="M222.55,71.99h322.51c5.96,0,11.68,2.37,15.9,6.59h0s8.49-8.49,8.49-8.49l-8.49-8.49h0c-4.22,4.22-9.94,6.59-15.9,6.59H222.55v3.8Z"/>
  </g>
  <g>
    <path class="st3" d="M331.18,287.47h216.97c7.8-.55,12.81,5.43,12.81,5.43l3.09,1.15,8.49-8.49-8.49-8.49-3.11-1.93s-7.07,8.51-12.79,8.51l-220.31,2.53,3.34,1.27Z"/>
    <path class="st2" d="M328.1,285.93h216.97c5.96,0,11.68,2.37,15.9,6.59h0s8.49-8.49,8.49-8.49l-8.49-8.49h0c-4.22,4.22-9.94,6.59-15.9,6.59h-216.97v3.8Z"/>
  </g>
  <path class="st3" d="M133.75,172.8l4.32,2.97s2.64,6.58,12.54,15.01c0,0-13.2-9.85-16.86-17.98Z"/>
  <path class="st3" d="M123.02,190.73l4.56,2.54s7.04-.79,19.15,3.96c0,0-14.82-7.11-23.72-6.49Z"/>
  <g>
    <polygon class="st3" points="225.15 195.46 221.87 207.21 221.42 208.8 225.85 207.38 229.95 192.72 226.85 189.82 225.15 195.46"/>
    <path class="st3" d="M228.59,49.22l-1.48-3.16-2.87-6.13-13.42-28.63-4.32-.06,16.71,35.66,3.78,8.06.93,1.99-1.13,13.23-4.59,53.57-.7,53.76-.1,7.38,3.84,3.58.06-4.38c.52-40.09,2.5-80.15,5.92-120.1h0s.66-7.74.66-7.74l-3.3-7.03Z"/>
  </g>
  <path class="st3" d="M353.98,336.17l-8.86-.91-2.19-.22-10.76-7.79h0c-29.03-21.01-58.81-40.96-89.28-59.81h0s-2.02-1.25-2.02-1.25l-4.44-2.75-5.02,1.46-1.88.55-3.9-4.13-8.38-8.86-1.14-1.2-1.06,4.53,10.29,10.89,3,3.17,4.18-1.22,3.33-.97,4.87,3.01c30.48,18.86,60.27,38.81,89.3,59.82l5.17,3.74,6.29,4.55,7.72.8,3.47.36,6.74.7,31.45,3.24,2.53-3.38-39.43-4.33Z"/>
  <path class="st3" d="M58.87,335.51l8.86-.87,2.19-.21,10.8-7.73h0c29.13-20.87,59-40.67,89.56-59.38h0s2.02-1.24,2.02-1.24l4.45-2.73,5.01,1.49,1.88.56,3.92-4.11,8.42-8.82,1.14-1.2,1.04,4.54-10.34,10.84-3.02,3.16-4.18-1.24-3.32-.99-4.88,2.99c-30.57,18.71-60.45,38.52-89.59,59.39l-5.19,3.72-6.32,4.52-7.73.76-3.47.34-6.74.66-31.46,3.09-2.69-3.45,39.62-4.08Z"/>
  <path class="st3" d="M202.44,232.91c-.04-.23-.09-.46-.15-.68-.18-.61-.48-1.16-.87-1.63-.53-.64-1.22-1.12-2-1.37-.3-.1-.61-.16-.92-.18l-.92.03-1.51.05c-2.36,1.41-4.71,2.81-7.07,4.22-10.22,6.1-20.93,12.23-31.15,18.33-10.22,5.57-19.94,11.1-30.16,16.67-1.71.93-3.43,1.87-5.14,2.8-19.93,10.86-40.15,21.17-60.64,30.92h0s-6.96,3.31-6.96,3.31l-2.83,4.16-1.65,2.42-3.3,4.85-1.29,1.89-5.36,7.87-.43.64c1.74-.27,3.48-.53,5.22-.8,0,0,.02,0,.02,0l3.1-4.55,5.36-7.87.85-1.25,2.78-4.09,6.3-3c20.49-9.75,40.71-20.06,60.63-30.92,1.92-1.05,3.84-2.09,5.76-3.14,9.49-5.17,18.98-10.35,28.48-15.52.57-.31,1.15-.63,1.72-.94,11.23-6.7,22.46-13.39,33.69-20.09.6-.35,1.19-.71,1.79-1.07.19-.12.39-.23.58-.35.7-.34,1.56-.55,2.5-.55.54,0,1.06.07,1.54.2h0c.84.22,1.54.61,2.02,1.1.04-.23.05-.47.05-.71s-.02-.49-.05-.73Z"/>
  <path class="st3" d="M210.62,232.76c.04-.23.3-.47.37-.69.19-.61.49-1.16.88-1.63.53-.64,1.23-1.11,2.01-1.36.3-.09.61-.15.93-.18l.92.03,1.51.06c2.35,1.42,4.69,2.84,7.04,4.26,10.18,6.16,20.86,12.36,31.04,18.52,10.18,5.64,19.87,11.22,30.05,16.85,1.71.94,3.41,1.89,5.12,2.83,19.86,10.99,40.02,21.42,60.45,31.3h0s6.94,3.35,6.94,3.35l2.81,4.17,1.63,2.43,3.27,4.87,1.28,1.9,5.31,7.9.43.64c-1.74-.28-3.48-.55-5.22-.83,0,0-.02,0-.02,0l-3.07-4.57-5.31-7.9-.84-1.25-2.76-4.1-6.29-3.04c-20.43-9.88-40.58-20.31-60.44-31.3-1.91-1.06-3.83-2.12-5.74-3.17-9.46-5.23-18.92-10.47-28.38-15.7-.57-.32-1.14-.63-1.72-.95-11.19-6.77-22.38-13.53-33.57-20.3-.6-.36-1.19-.72-1.78-1.08-.19-.12-.39-.23-.58-.35-.7-.35-1.56-.56-2.5-.56-.54,0-1.06.06-1.54.19h0c-.84.21-1.69.78-2.18,1.27-.04-.23-.05-.47-.05-.71s-.04-.67,0-.9Z"/>
  <path class="st3" d="M207.95,223.06c-.22.09-.56-.01-.78.04-.62.15-1.25.17-1.85.08-.82-.13-1.59-.48-2.2-1.03-.23-.21-.44-.44-.63-.7l-.44-.8-.73-1.33c.02-2.75.03-5.49.04-8.23.06-11.9-.09-24.24-.02-36.14-.39-11.63-.56-22.81-.95-34.44-.07-1.95-.13-3.9-.2-5.85-.76-22.68-2.14-45.34-4.14-67.94h0s-.68-7.67-.68-7.67l2.14-4.55,1.25-2.65,2.5-5.31.97-2.07,4.06-8.61.33-.7c.65,1.64,1.31,3.27,1.96,4.91,0,0,0,.02,0,.02l-2.35,4.98-4.06,8.61-.64,1.37-2.11,4.47.62,6.96c2,22.6,3.38,45.26,4.14,67.94.07,2.18.15,4.37.22,6.55.36,10.81.72,21.61,1.08,32.42.02.65.04,1.31.06,1.96-.07,13.08-.14,26.15-.21,39.23,0,.69,0,1.39-.01,2.08,0,.22,0,.45,0,.68.06.78.32,1.63.8,2.43.28.47.6.88.95,1.22h0c.61.62,1.54,1.06,2.21,1.22-.18.15-.38.29-.58.41s-.55.37-.77.46Z"/>
  <path class="st3" d="M235.02,227.15l9.35-8.99c5.91-5.31,12.68-11.74,19.86-15.14,0,0,10.62-6.28,23.39-7.46l5.8-.66,3.46-14.35-3.35-3.45-3.24,13.88-5.75.66s-12.71,2.65-21.89,7.69l-7.26,3.84c-7.08,3.38-7.45,6.37-13.3,11.59l-11.79,11.13,4.71,1.26Z"/>
  <path class="st3" d="M219.68,255.05l-3,12.45c-1.58,7.69-3.69,16.65-3,24.49,0,0-.04,12.21,5.39,23.76l2.36,5.31-10.59,10.01-4.28-1.46,9.92-9.32-2.34-5.26s-4.14-12.22-4.44-22.58l-.09-1.06c-.67-7.74.64-16.62,2.18-24.2l4.41-15.57,3.46,3.43Z"/>
  <path class="st0" d="M393.14,340.33l-16.77-24.93-2.77-4.12-8.53-12.69-.13-.2s0,0,0,0l-18.51-8.95c-31.76-15.71-61.29-32.27-94.78-51.15h0s0,0,0,0l-1.52-7.15s0,0,0,0l-19.43-5.39s0,0,0,0l14.71-14.07h0c1.11-1.22,2.41-2.47,3.89-3.72,4.42-3.73,10.39-7.45,17.29-10.57,3.15-1.42,6.27-2.61,9.27-3.57,5.33-1.7,10.3-2.66,14.44-2.83,0,0,0,0,0,0l.42-1.87.57-2.54,2.1-9.34s0,0,0,0l-9.2-2.65-2.5-.72-1.84-.53s0,0,0,0c-2.05,3.38-5.08,7.09-8.88,10.78-.09.09-.18.17-.27.26-.15.15-.31.3-.47.45-.03.03-.05.05-.08.08-2.21,2.08-4.66,4.16-7.31,6.15-6.05,4.55-12.18,8-17.57,10.08-1.81.7-3.53,1.24-5.14,1.63h0s-18.66,5.9-18.66,5.9c0,0,0,0,0,0l5.36-18.65s0,0,0,0l-5.35-4.97s0,0,0,0h0c.18-35.91,2.02-71.49,4.82-107.59l1.83-20.48h0s-.1-.22-.1-.22l-21.39-45.54s0,0,0,0l-21.39,45.54-.1.22s0,0,0,0c0,0,4.83,67.57,4.84,67.68.25,3.47,1.81,60.39,1.81,60.39,0,0,0,0,0,0l-5.35,4.97s0,0,0,0l5.36,18.55h0s-18.54-5.96-18.54-5.96h0c-1.6-.39-3.32-.94-5.12-1.65-5.38-2.11-11.5-5.58-17.53-10.17-2.75-2.09-5.29-4.27-7.56-6.45-4.04-3.88-7.24-7.79-9.37-11.35,0,0,0,0,0,0l-1.84.52-2.5.71-9.22,2.6s0,0,0,0l2.06,9.35.56,2.54.41,1.87c3.95.19,8.65,1.09,13.71,2.68.12.04.24.08.36.11.2.06.41.13.61.2.03.01.07.02.11.03,2.89.95,5.88,2.12,8.89,3.5,6.89,3.15,12.84,6.9,17.23,10.65,1.48,1.26,2.78,2.51,3.88,3.75h0s14.64,14.14,14.64,14.14c0,0,0,0,0,0l-19.46,5.3s0,0,0,0l-1.55,7.14h0s0,0,0,0c-31.26,18.21-62.18,34.38-95.03,50.68l-18.55,8.86s0,0,0,0l-.14.2-8.6,12.64-2.79,4.11-9.35,13.75s0,0,0,0l-.27.4s0,0,0,0l-7.28,10.71s0,0,0,0l12.89-1.24h0s.48-.05.48-.05c0,0,0,0,0,0l16.55-1.59,4.95-.47,15.22-1.46.24-.02h0s16.64-11.98,16.64-11.98l44.58-30.3,45.58-28.71s0,0,0,0l7.01,2.07s0,0,0,0l13.32-14.12s0,0,0,0l4.43,19.07h0c.49,1.58.9,3.33,1.22,5.24.96,5.7,1.12,12.74.28,20.26-.38,3.44-.95,6.73-1.65,9.8-1.25,5.45-2.96,10.21-4.92,13.87,0,0,0,0,0,0l1.39,1.31,1.89,1.78,6.97,6.57s0,0,0,0l6.97-6.57,1.89-1.78,1.39-1.31s0,0,0,0c-1.87-3.49-3.51-7.99-4.75-13.13-.03-.12-.06-.24-.09-.37-.05-.21-.1-.42-.15-.63,0-.04-.02-.07-.02-.11-.67-2.96-1.2-6.13-1.57-9.43-.84-7.52-.67-14.56.28-20.26.32-1.91.73-3.68,1.22-5.25h0s4.41-18.96,4.41-18.96c0,0,0,0,0,0l13.16,14.13s0,0,0,0l7.02-2.03h0s0,0,0,0c30.73,18.66,60.57,38.4,89.83,59.42l16.63,12.09s0,0,0,0l.24.02,15.21,1.54,4.94.5,29.9,3.02s0,0,0,0ZM201.22,236.92c-.3.33-.66.63-1.07.87h0s-.04.04-.07.06l-3.02,1.77h0l-2.48,1.46v.06s-31.03,18.58-31.03,18.58h0c-28.87,17.96-57.21,36.48-84.78,55.74l-12.66,9.11-2.29.22-10.72,1.03-12.63,1.21,7.13-10.49,6.05-8.9,1.29-1.9h0c39.92-19.06,79.01-39.8,117.17-62.17l23.33-13.67v.02c.95-.55,2-.74,2.99-.59,1.33.19,2.56.95,3.3,2.19,1.04,1.78.76,3.96-.54,5.43ZM206.62,222.96c-.08,0-.16,0-.24,0-.03,0-.05,0-.08,0-.06,0-.12,0-.18-.02-.02,0-.05,0-.07,0-.06,0-.13-.02-.19-.03-.02,0-.03,0-.05,0-.07-.01-.15-.03-.22-.05,0,0,0,0-.01,0-1.01-.24-1.89-.81-2.52-1.59-.63-.79-1.01-1.79-1.01-2.87h-.02l-.18-30.35c-.26-43.13-2.32-86.24-6.16-129.2h0s.98-2.08.98-2.08l4.58-9.74,5.39-11.49,5.39,11.49,4.58,9.74.98,2.08h0c-3.84,42.96-5.9,86.06-6.16,129.19l-.16,26.79h-.04s.02,3.47.02,3.47c0,.03,0,.06,0,.08h-.01c0,.32-.03.64-.1.94,0,.04-.02.08-.03.12,0,0,0,.01,0,.02-.51,2-2.31,3.49-4.47,3.5ZM359.67,326.57l-10.71-1.08-2.29-.23h0c-35.77-26.02-71.81-50.17-110.47-73.41l-17.55-10.62h0s-.79-.48-.79-.48l-4.8-2.9v-.02c-.92-.56-1.58-1.39-1.93-2.34-.29-.78-.36-1.64-.2-2.47,0-.03.01-.05.02-.08.01-.05.02-.1.03-.15.01-.04.02-.08.03-.12,0-.03.02-.07.03-.1.01-.05.03-.09.05-.14,0-.03.02-.06.03-.08.02-.05.04-.1.06-.15.01-.03.02-.05.03-.08.02-.05.04-.1.06-.15.01-.03.03-.06.04-.08.02-.05.04-.09.07-.14.03-.06.06-.11.09-.17,0-.02.02-.03.03-.05.74-1.24,1.98-2,3.31-2.18,1-.14,2.05.05,2.99.61h0s23.29,13.79,23.29,13.79c38.62,22.43,77.03,43.48,116.84,62.73h0s1.28,1.91,1.28,1.91l6.01,8.93,7.08,10.53-12.62-1.27Z"/>
  <g>
    <g>
      <g>
        <path class="st3" d="M411.66,242.36l-.03-16.78c0-5.52.52-10.6,1.55-15.1l.11-.5-2.07-1.37-8.03,1.88c1.02,3.87,1.54,8.89,1.54,14.93l-2.33,12.65-14.32-19.83c-2.43-3.38-5.86-8.12-5.86-8.12l-3.15-1.52-3.47,8.35v23.94c0,5.49-3.24,9.83-4.24,13.71l2.6.94h10.26l-.15-.52c-1.02-3.55-1.54-8.3-1.54-14.13v-15.22l15.68,21.28c2.74,3.71,2.15,5.77,2.93,7.6l2.48.99h9.68l-.15-.52c-1-3.49-1.51-7.75-1.51-12.67Z"/>
        <path class="st1" d="M409.34,241.2l-.03-16.78c0-5.52.52-10.6,1.55-15.1l.11-.5h-10.23l.14.52c1.02,3.87,1.54,8.89,1.54,14.93v17.77l-17.9-24.78c-2.43-3.38-4.26-6.15-5.43-8.23l-.12-.21h-11.58l5.91,6.98v23.94c0,5.49-.51,10.25-1.51,14.14l-.13.51h10.26l-.15-.52c-1.02-3.55-1.54-8.3-1.54-14.13v-15.22l15.68,21.28c2.74,3.71,4.52,6.51,5.31,8.34l.11.25h9.68l-.15-.52c-1-3.49-1.51-7.75-1.51-12.67Z"/>
      </g>
      <g>
        <path class="st3" d="M313.06,215.66c3.31,0,4.61.1,7.53,1.63l2.23.88,3.9-8.19-2.02-1.38-23.76,1.38.16.53c1,3.23,1.51,7.31,1.51,12.12v19.2c0,5-3.24,9.01-4.24,12.77l2.59.96h10.99l-.15-.52c-1.02-3.65-1.54-7.94-1.54-12.73v-7.17c2.23.1,6.07.66,7.98,1.54l2.27.88,4.67-8.16-1.97-1.37-12.94,1.37v-13.66c1.46-.05,2.4-.08,2.8-.08Z"/>
        <path class="st1" d="M310.73,214.5c3.31,0,6.46.78,9.38,2.31l.38.2,3.9-8.19h-25.78l.16.53c1,3.23,1.51,7.31,1.51,12.12v19.2c0,5-.51,9.45-1.51,13.21l-.14.52h10.99l-.15-.52c-1.02-3.65-1.54-7.94-1.54-12.73v-7.17c2.23.1,3.88.26,4.91.47,1.41.31,3.09.91,5,1.79l.34.16,4.67-8.16h-14.92v-13.66c1.46-.05,2.4-.08,2.8-.08Z"/>
      </g>
      <g>
        <path class="st3" d="M443.3,249.96c-4.68,0-8.41-1.72-11.07-5.11-2.45-3.1-3.7-7.14-3.7-11.99s1.33-9.06,3.95-12.21c2.79-3.38,6.65-5.09,11.46-5.09,3.74,0,6.32.91,10.6,3.55l2.13.81v-8.7l-2.12-1.32c-4.09-1.21-6.16-.6-9.76-.6-7.09,0-12.99,2.28-17.53,6.76-4.54,4.49-6.84,10.37-6.84,17.49,0,6.63,2.13,12.12,6.32,16.33,4.19,4.2,9.69,6.33,16.34,6.33,4.19,0,8.94-1.14,14.12-3.4l.23-.1.4-8.54-2.1-1.58c-4.89,3.51-8.13,7.37-12.42,7.37Z"/>
        <path class="st1" d="M440.98,248.8c-4.68,0-8.41-1.72-11.07-5.11-2.45-3.1-3.7-7.14-3.7-11.99s1.33-9.06,3.95-12.21c2.79-3.38,6.65-5.09,11.46-5.09,3.74,0,7.82,1.34,12.1,3.98l.63.39v-8.7l-.29-.09c-4.09-1.21-7.99-1.83-11.59-1.83-7.09,0-12.99,2.28-17.53,6.76-4.54,4.49-6.84,10.37-6.84,17.49,0,6.63,2.13,12.12,6.32,16.33,4.19,4.2,9.69,6.33,16.34,6.33,4.19,0,8.94-1.14,14.12-3.4l.23-.1.4-8.54-.69.49c-4.89,3.51-9.54,5.3-13.83,5.3Z"/>
      </g>
      <g>
        <path class="st3" d="M491.74,243.83c-2.83,1.49-5,4.63-8.19,5.13-1.15.2-4.3.49-9.36.85v-14.67c3.98.22,5.39.24,7.99,1.53l2.28.9,4.71-8.16-1.96-1.39-13.03,1.39v-13.66c1.46-.05,2.39-.08,2.78-.08,3.3,0,3.94.37,7.57,1.61l2.25.89,3.89-8.19-2.01-1.36-23.79,1.36.12.5c1.03,4.49,1.55,9.23,1.55,14.09v15.64c0,6.54-3.31,11.08-4.33,14.38l2.62.97h24.54l4.27-10.11-1.91-1.61Z"/>
        <path class="st1" d="M490.3,244.81c-2.83,1.49-5.89,2.49-9.08,2.99-1.15.2-4.3.49-9.36.85v-14.67c3.98.22,7.32.98,9.93,2.26l.34.17,4.71-8.16h-14.99v-13.66c1.46-.05,2.39-.08,2.78-.08,3.3,0,6.47.78,9.44,2.31l.38.19,3.89-8.19h-25.8l.12.5c1.03,4.49,1.55,9.23,1.55,14.09v15.64c0,6.54-.52,11.52-1.54,14.82l-.17.53h24.54l4.27-10.11-1.01.53Z"/>
      </g>
      <g>
        <path class="st3" d="M360.77,243.83c-2.83,1.49-5,4.63-8.19,5.13-1.15.2-4.3.49-9.36.85v-14.67c3.98.22,5.39.24,7.99,1.53l2.28.9,4.71-8.16-1.96-1.39-13.03,1.39v-13.66c1.46-.05,2.39-.08,2.78-.08,3.3,0,3.94.37,7.57,1.61l2.25.89,3.89-8.19-2.01-1.36-23.79,1.36.12.5c1.03,4.49,1.55,9.23,1.55,14.09v15.64c0,6.54-3.31,11.08-4.33,14.38l2.62.97h24.54l4.27-10.11-1.91-1.61Z"/>
        <path class="st1" d="M359.34,244.81c-2.83,1.49-5.89,2.49-9.08,2.99-1.15.2-4.3.49-9.36.85v-14.67c3.98.22,7.32.98,9.93,2.26l.34.17,4.71-8.16h-14.99v-13.66c1.46-.05,2.39-.08,2.78-.08,3.3,0,6.47.78,9.44,2.31l.38.19,3.89-8.19h-25.8l.12.5c1.03,4.49,1.55,9.23,1.55,14.09v15.64c0,6.54-.52,11.52-1.54,14.82l-.17.53h24.54l4.27-10.11-1.01.53Z"/>
      </g>
    </g>
    <g>
      <g>
        <path class="st3" d="M356.73,177.5c0,3.94-1.3,7.24-3.91,9.89-2.61,2.65-5.88,3.98-9.82,3.98s-7.82-1.33-11.16-3.78c-2.99-2.19-2.77-6.2-2.77-10.3s1.38-7.29,4.14-9.9c2.73-2.56,5.66-5,9.68-5s7.62,2.51,10.14,5.19c2.47,2.64,3.7,5.94,3.7,9.92ZM352.29,178.29c0-2.95-1.77-4.37-3.47-6.61-1.87-2.45-3.33-4.85-6.2-4.85s-4.95.94-6.67,2.82c-1.65,1.81-2.48,4.09-2.48,6.84,0,3.06.86,5.71,2.58,7.95,1.87,2.44,4.5,2.8,7.46,2.31,2.69-.44,4.71.36,6.4-1.6,1.59-1.86,2.38-4.15,2.38-6.86Z"/>
        <path class="st1" d="M354.4,176.34c0,3.94-1.3,7.24-3.91,9.89-2.61,2.65-5.88,3.98-9.82,3.98s-7.44-1.32-10.04-3.96c-2.6-2.64-3.9-6.02-3.9-10.12s1.38-7.29,4.14-9.9c2.73-2.56,6.1-3.84,10.11-3.84s7.19,1.34,9.71,4.03c2.47,2.64,3.7,5.94,3.7,9.92ZM349.97,177.13c0-2.95-.85-5.54-2.56-7.78-1.87-2.45-4.24-3.68-7.11-3.68s-4.95.94-6.67,2.82c-1.65,1.81-2.48,4.09-2.48,6.84,0,3.06.86,5.71,2.58,7.95,1.87,2.44,4.31,3.66,7.31,3.66,2.68,0,4.86-.98,6.56-2.95,1.59-1.86,2.38-4.15,2.38-6.86Z"/>
      </g>
      <g>
        <path class="st3" d="M378.59,163.96l-2.07,4.36c-.72-.38-2.26-.87-2.26-.87,0,0-2.44-.92-3.67-.92-.27,0-1.14-.09-1.79.43v8.73l6.82-1.37,2,1.37-2.49,4.36-2.35-.89s-2.64-1.28-3.99-.51v4.59c0,2.93.31,5.51.94,7.75h-5.99l-2.6-.95s3.52-4.47,3.52-7.09v-11.59c0-2.94-.31-5.4-.92-7.39l12.83-1.37,2.01,1.37Z"/>
        <path class="st1" d="M376.27,162.79l-2.07,4.36c-1.8-.95-3.73-1.42-5.78-1.42-.27,0-.91.02-1.94.06v8.73h8.83l-2.49,4.36c-1.18-.54-2.2-.91-3.07-1.1-.68-.14-1.77-.24-3.26-.3v4.59c0,2.93.31,5.51.94,7.75h-5.99c.61-2.3.92-4.98.92-8.04v-11.59c0-2.94-.31-5.4-.92-7.39h14.83Z"/>
      </g>
      <g>
        <path class="st3" d="M412.6,163.96l-1.33,4.36c-1.37-.61-2.55-1-3.54-1.17-.78-.14-2.02-.21-3.71-.23v15.05c0,3.92.31,6.93.92,9.01h-5.99l-2.61-.96s3.55-4.26,3.55-8.21v-14.9c-1.96.13-3.42.25-4.37.38-1.58.23-2.99.57-4.23,1.02l-2.66-.83,4.12-3.53,17.78-1.37,2.06,1.37Z"/>
        <path class="st1" d="M410.27,162.79l-1.33,4.36c-1.37-.61-2.55-1-3.54-1.17-.78-.14-2.02-.21-3.71-.23v15.05c0,3.92.31,6.93.92,9.01h-5.99c.63-1.88.94-4.93.94-9.17v-14.9c-1.96.13-3.42.25-4.37.38-1.58.23-2.99.57-4.23,1.02l1.46-4.36h19.84Z"/>
      </g>
      <g>
        <path class="st3" d="M441.58,190.98h-5.99l-2.6-.96s3.52-3.42,3.52-4.39v-6.75h-11.59v3.45c0,3.01.31,5.89.94,8.65h-5.99l-2.6-.95s3.53-5,3.53-6.95v-10.65c0-3.22-.84-7.1,3-9.83l2.07,1.37c-.63,2.46-.94,4.64-.94,6.56v4.99h11.59v-3.51c0-2.7.71-6.71,3-9.41l2.06,1.37c-.63,2.32-.94,4.91-.94,7.79v10.04c0,3.66.31,6.72.94,9.19Z"/>
        <path class="st1" d="M439.25,189.81h-5.99c.61-2.15.92-3.93.92-5.35v-6.75h-11.59v3.45c0,3.01.31,5.89.94,8.65h-5.99c.61-2.12.92-4.76.92-7.91v-10.65c0-3.22-.31-6.04-.92-8.46h5.99c-.63,2.46-.94,4.64-.94,6.56v4.99h11.59v-3.51c0-2.7-.31-5.38-.92-8.04h5.99c-.63,2.32-.94,4.91-.94,7.79v10.04c0,3.66.31,6.72.94,9.19Z"/>
      </g>
      <g>
        <path class="st3" d="M465.28,185.66l-2.25,5.32h-14.31l-2.6-.95s3.54-5.62,3.54-8.07v-9.44c0-2.97-.31-5.82-.94-8.56l12.86-1.37,2.01,1.37-2.09,4.4c-1.83-.95-3.75-1.46-5.79-1.46-.26,0-.9.02-1.92.06v8.73l6.91-1.37,1.96,1.37-2.51,4.36c-1.67-.82-3.79-1.29-6.35-1.4v9.38c3.23-.23,9.55-3.99,9.55-3.99l1.95,1.63Z"/>
        <path class="st1" d="M462.95,184.5l-2.25,5.32h-14.31c.63-2.02.94-5.03.94-9.02v-9.44c0-2.97-.31-5.82-.94-8.56h14.87l-2.07,4.36c-1.83-.95-3.77-1.42-5.81-1.42-.26,0-.9.02-1.92.06v8.73h8.87l-2.51,4.36c-1.67-.82-3.79-1.29-6.35-1.4v9.38c3.23-.23,5.21-.41,5.94-.53,1.96-.3,3.81-.91,5.55-1.83Z"/>
      </g>
    </g>
    <g>
      <g>
        <path class="st3" d="M321.35,97.68l.14-.52-2.06-1.36-8.79,1.88c1,3.74,1.51,8.15,1.51,13.12v20.03c0,3.68-3.23,7.07-4.24,10.96l2.59.95h10.98l-.14-.51c-1.02-3.89-1.54-7.83-1.54-11.72v-19.71c0-4.96.52-9.37,1.54-13.12Z"/>
        <path class="st1" d="M319.02,96.51l.14-.52h-10.99l.14.52c1,3.74,1.51,8.15,1.51,13.12v20.03c0,3.68-.51,7.51-1.51,11.4l-.13.51h10.98l-.14-.51c-1.02-3.89-1.54-7.83-1.54-11.72v-19.71c0-4.96.52-9.37,1.54-13.12Z"/>
      </g>
      <g>
        <path class="st3" d="M370.41,129.54l-.03-16.78c0-5.52.52-10.6,1.55-15.1l.11-.5-2.08-1.38-8.02,1.89c1.02,3.87,1.54,8.89,1.54,14.93l-2.33,12.65-14.32-19.83c-2.43-3.38-5.86-8.12-5.86-8.12l-3.18-1.53-3.43,8.36v23.94c0,5.49-3.23,9.82-4.23,13.71l2.59.94h10.26l-.15-.52c-1.02-3.55-1.54-8.3-1.54-14.13v-15.22l15.68,21.28c2.74,3.71,2.18,5.81,2.97,7.63l2.45.96h9.68l-.15-.52c-1-3.49-1.51-7.75-1.51-12.67Z"/>
        <path class="st1" d="M368.08,128.38l-.03-16.78c0-5.52.52-10.6,1.55-15.1l.11-.5h-10.23l.14.52c1.02,3.87,1.54,8.89,1.54,14.93v17.77l-17.9-24.78c-2.43-3.38-4.26-6.15-5.43-8.23l-.12-.21h-11.58l5.91,6.98v23.94c0,5.49-.51,10.25-1.51,14.14l-.13.51h10.26l-.15-.52c-1.02-3.55-1.54-8.3-1.54-14.13v-15.22l15.68,21.28c2.74,3.71,4.52,6.51,5.31,8.34l.11.25h9.68l-.15-.52c-1-3.49-1.51-7.75-1.51-12.67Z"/>
      </g>
      <g>
        <path class="st3" d="M390.51,97.68l.14-.52-2.06-1.37-8.79,1.88c1,3.74,1.51,8.15,1.51,13.12v20.03c0,3.68-3.23,7.1-4.24,10.99l2.59.93h10.98l-.14-.51c-1.02-3.89-1.54-7.83-1.54-11.72v-19.71c0-4.96.52-9.37,1.54-13.12Z"/>
        <path class="st1" d="M388.19,96.51l.14-.52h-10.99l.14.52c1,3.74,1.51,8.15,1.51,13.12v20.03c0,3.68-.51,7.51-1.51,11.4l-.13.51h10.98l-.14-.51c-1.02-3.89-1.54-7.83-1.54-11.72v-19.71c0-4.96.52-9.37,1.54-13.12Z"/>
      </g>
      <g>
        <path class="st3" d="M410.38,114.24c-2.73-2.09-4.11-4.11-4.11-5.99,0-1.67.57-2.98,1.74-4.01,1.11-.98,2.54-1.48,4.25-1.48s4.68,2.03,6.61,4.07l2.33,1.16-.21-9.11-2.15-1.91c-2.69-1.12-3.5-.47-6.17-.47-4,0-7.39,1.09-10.08,3.23-2.95,2.34-4.45,5.52-4.45,9.47,0,3.36,1.48,6.46,4.4,9.19l7.99,6c2.73,2.11,4.11,4.19,4.11,6.19s-.74,3.5-2.27,4.77c-1.42,1.2-3,1.62-5,1.62-1.82,0-3.03-.71-4.83-1.47-.74-.31-1.57-.85-2.34-1.68-.96-1.02-2.53-4.07-2.53-4.07l-2.3-.42.22,10.71,2.56,1.28c2.86,1.4,5.75,2.11,8.57,2.11,4.37,0,8.09-1.1,11.05-3.26,3.32-2.46,5-5.89,5-10.18,0-3.55-1.48-6.79-4.39-9.63l-8-6.1Z"/>
        <path class="st1" d="M408.06,113.07c-2.73-2.09-4.11-4.11-4.11-5.99,0-1.67.57-2.98,1.74-4.01,1.11-.98,2.54-1.48,4.25-1.48s3.16.38,4.41,1.12c.68.41,1.9,1.42,3.63,3l.69.63v-9.21l-.25-.11c-2.69-1.12-5.4-1.68-8.07-1.68-4,0-7.39,1.09-10.08,3.23-2.95,2.34-4.45,5.52-4.45,9.47,0,3.36,1.48,6.46,4.4,9.19l7.99,6c2.73,2.11,4.11,4.19,4.11,6.19s-.74,3.5-2.27,4.77c-1.42,1.2-3.16,1.81-5.15,1.81-1.82,0-3.46-.48-4.86-1.42-1.09-.74-2.33-1.99-3.7-3.73l-.73-.93v10.12l.23.11c2.86,1.4,5.75,2.11,8.57,2.11,4.37,0,8.09-1.1,11.05-3.26,3.32-2.46,5-5.89,5-10.18,0-3.55-1.48-6.79-4.39-9.63l-8-6.1Z"/>
      </g>
      <g>
        <path class="st3" d="M428.27,105.46l.8-.29c2.02-.74,4.35-1.3,6.92-1.67,1.48-.2,3.76-.4,6.77-.6v24.24c0,6.93-3.24,11.64-4.26,14.7l2.54.9h11.04l-.16-.53c-1-3.4-1.51-8.38-1.51-14.81v-24.52c2.56.03,3.86-1.15,9.63,1.59l2.08.91,2.63-8.22-2.08-1.37-33.96.2-3.11,8.66,2.65.81Z"/>
        <path class="st1" d="M425.94,104.3l.8-.29c2.02-.74,4.35-1.3,6.92-1.67,1.48-.2,3.76-.4,6.77-.6v24.24c0,6.93-.52,11.99-1.54,15.05l-.18.54h11.04l-.16-.53c-1-3.4-1.51-8.38-1.51-14.81v-24.52c2.56.03,4.46.15,5.67.37,1.6.29,3.54.93,5.77,1.92l.42.19,2.49-8.19h-33.72l-2.78,8.3Z"/>
      </g>
      <g>
        <path class="st3" d="M490.47,122.1c5.68-2.56,8.55-6.49,8.55-11.66,0-5.52-2.8-8.85-7.45-11.55-3.28-1.91-8.31-2.9-14.61-2.9l-5.09,1.16.11.5c1.01,4.57,1.52,8.79,1.52,12.53v18.85c0,5.55-3.26,9.55-4.26,12.74l2.59.96h11l-.12-.51c-1.03-4.29-1.55-9.01-1.55-14.02v-4.94c5.85,8.23,9.1,13.92,14.21,18.53l2.42.93h9.19l-.66-.69c-6.35-6.64-11.68-13.34-15.84-19.94ZM490.89,110.81c0,2.72-1.02,4.8-3.13,6.37-1.67,1.24-3.89,2.03-6.61,2.38v-18.01c6.55.6,9.73,4.19,9.73,9.27Z"/>
        <path class="st1" d="M488.14,120.94c5.68-2.56,8.55-6.49,8.55-11.66,0-5.52-2.52-9.35-7.5-11.38-3.13-1.26-7.91-1.91-14.2-1.91h-5.44l.11.5c1.01,4.57,1.52,8.79,1.52,12.53v18.85c0,5.55-.51,9.98-1.51,13.16l-.17.53h11l-.12-.51c-1.03-4.29-1.55-9.01-1.55-14.02v-4.94c5.85,8.23,11.4,14.74,16.51,19.36l.12.11h9.19l-.66-.69c-6.35-6.64-11.68-13.34-15.84-19.94ZM488.56,109.64c0,2.72-1.02,4.8-3.13,6.37-1.67,1.24-3.89,2.03-6.61,2.38v-17.18c6.55.6,9.73,3.36,9.73,8.44Z"/>
      </g>
      <g>
        <path class="st3" d="M542.75,95.78l-9.65,1.76c-.17,2.6-1.2,5.67-3.07,9.13l-4.59,7.81-5.43-10.5c-1.26-2.38-1.52-2.97-1.57-3.13-.26-.7-.41-1.81-.45-3.3v-.4s-2.14-1.37-2.14-1.37l-9.21,2.06c2.51,2.61,5.26,6.59,8.17,11.83,2.21,4.12,4.42,8.25,6.63,12.37v9.15c0,3.42-3.24,6.68-4.26,10.57l2.58.96h11.03l-.15-.53c-1.02-3.49-1.54-7.17-1.54-10.95v-9.21c2.22-4.22,4.43-8.46,6.56-12.59,2.74-5.01,5.51-8.91,8.23-11.6l.71-.7-1.83-1.38Z"/>
        <path class="st1" d="M530.8,95.99l-.02.38c-.17,2.6-1.2,5.67-3.07,9.13l-4.59,7.81-5.43-10.5c-1.26-2.38-1.52-2.97-1.57-3.13-.26-.7-.41-1.81-.45-3.3v-.4h-12.02l.67.69c2.51,2.61,5.26,6.59,8.17,11.83,2.21,4.12,4.42,8.25,6.63,12.37v9.15c0,3.42-.52,7.13-1.54,11.02l-.14.51h11.03l-.15-.53c-1.02-3.49-1.54-7.17-1.54-10.95v-9.21c2.22-4.22,4.43-8.46,6.56-12.59,2.74-5.01,5.51-8.91,8.23-11.6l.71-.7h-11.46Z"/>
      </g>
      <g>
        <path class="st3" d="M292.5,97.44c-.45,1.42-1.11,2.79-1.96,4.06-.42.62-1.37,1.86-2.84,3.69l-10.57,13.21-11.8-14.36c-2.13-2.56-2.47-3-2.49-3.04l-.03-.05c-.74-1.06-1.2-2.22-1.36-3.44l-.05-.36-2.33-1.16-4.17,7.57v24.87c0,5.49-3.27,9.68-4.29,13.34l2.61.96h10.98l-.13-.51c-1-4.04-1.51-8.36-1.51-12.84v-15.54l12.08,15.13,2.34.84,14.41-18.41v16.64c0,5.34-3.24,9.66-4.26,13.72l2.59.97h11.02l-.15-.52c-1.02-3.63-1.54-8.31-1.54-13.91v-16.78c0-3.03.21-5.45.62-7.18.54-2.2,1.59-4.4,3.14-6.53l.47-.65-1.93-1.36-8.87,1.64Z"/>
        <path class="st1" d="M290.17,96.28c-.45,1.42-1.11,2.79-1.96,4.06-.42.62-1.37,1.86-2.84,3.69l-10.57,13.21-11.8-14.36c-2.13-2.56-2.47-3-2.49-3.04l-.03-.05c-.74-1.06-1.2-2.22-1.36-3.44l-.05-.36h-11.64l5.15,6.4v24.87c0,5.49-.52,10.13-1.54,13.78l-.15.52h10.98l-.13-.51c-1-4.04-1.51-8.36-1.51-12.84v-17.22l14.43,17.66,14.41-18.41v16.64c0,5.34-.52,10.11-1.55,14.17l-.13.51h11.02l-.15-.52c-1.02-3.63-1.54-8.31-1.54-13.91v-16.78c0-3.03.21-5.45.62-7.18.54-2.2,1.59-4.4,3.14-6.53l.47-.65h-10.71l-.09.29Z"/>
        <path class="st3" d="M262.42,99.03c-.64-.88-.81-1.42-.96-1.92l-2.23-1.33.06,1.71.06.28c.17.72.49,1.36.9,1.84h0s2.25,2.7,2.25,2.7l12.3,14.92,1.4-1.73s-12.71-15-13.78-16.48Z"/>
      </g>
    </g>
  </g>
</svg>